<svg width="114" height="45" viewBox="0 0 114 45" fill="none" xmlns="http://www.w3.org/2000/svg">
<path d="M15.3786 35.6955C18.9289 40.769 23.5558 43.5258 27.8788 44.5449C34.8499 46.1882 41.2559 43.2713 42.6115 37.5691C44.3528 30.2443 38.1779 26.8607 32.9375 24.6733C28.5251 22.824 25.999 21.5858 26.5027 19.4673C26.9635 17.529 29.6794 17.2648 32.0559 17.825C34.9756 18.5133 37.8645 20.3367 39.586 22.6466L44.5749 18.753C41.646 15.0874 37.6951 12.7042 33.5984 11.7385C26.1973 9.99381 21.0534 13.2321 19.7943 18.5285C18.562 23.7123 22.3718 26.9905 27.5359 29.3979C32.0758 31.5154 36.6699 33.003 35.9519 36.0231C35.3625 38.5023 32.0165 38.9035 29.2552 38.2526C25.7017 37.415 22.7139 34.9017 20.6046 31.8102L15.3786 35.6955Z" fill="#E2A200"/>
<path d="M0 28.8718C1.35275 30.1189 3.01099 30.9858 4.8443 31.418C9.86893 32.6024 14.7067 30.1489 16.8272 26.0551C17.4775 24.828 17.9229 23.4573 18.6837 20.2569L23.1201 1.59529L16.3527 0L11.5037 20.397C11.2251 21.569 10.9643 22.3644 10.644 22.9077C9.90972 24.1864 8.23975 25.078 6.4517 24.6565C5.72743 24.4858 5.12585 24.2012 4.64574 23.7072L0 28.8718Z" fill="#E2A200"/>
<path d="M49.6516 40.3643H48.5743V35.456H49.6516C50.2378 35.456 50.5727 35.5338 50.8741 35.6672C51.7394 36.0563 52.2697 36.9124 52.2697 37.9074C52.2697 38.9024 51.7394 39.7639 50.8741 40.1475C50.5727 40.2809 50.2378 40.3643 49.6516 40.3643ZM49.6516 33.9162H46.9052V41.8873H49.6516C50.2992 41.8873 50.7123 41.8206 51.1086 41.7039C52.7442 41.1981 53.9443 39.7361 53.9443 37.9074C53.9443 36.0786 52.7442 34.6111 51.1086 34.1108C50.7123 33.9885 50.2992 33.9162 49.6516 33.9162Z" fill="white"/>
<path d="M55.0663 33.9162V41.8873H60.6987V40.3532H56.741V38.2798H59.7609V36.7623H56.741V35.4504H60.6987V33.9162H55.0663Z" fill="white"/>
<path d="M67.5871 33.9107L65.2984 39.6972L63.0098 33.9107H61.2011L64.4444 41.8873H66.1581L69.3957 33.9107H67.5871Z" fill="white"/>
<path d="M70.1493 33.9162V41.8873H75.7817V40.3532H71.824V38.2798H74.8439V36.7623H71.824V35.4504H75.7817V33.9162H70.1493Z" fill="white"/>
<path d="M77.0377 33.9107V41.8873H82.6701V40.3476H78.7124V33.9107H77.0377Z" fill="white"/>
<path d="M90.9987 37.9018C90.9987 35.6672 89.2682 33.9162 86.9181 33.9162C84.5736 33.9162 82.8432 35.6672 82.8432 37.9018C82.8432 40.1419 84.5736 41.8873 86.9181 41.8873C89.2682 41.8873 90.9987 40.1419 90.9987 37.9018ZM89.285 37.9018C89.285 39.2803 88.3583 40.3532 86.9181 40.3532C85.4835 40.3532 84.5569 39.2803 84.5569 37.9018C84.5569 36.5288 85.4835 35.4449 86.9181 35.4449C88.3583 35.4449 89.285 36.5288 89.285 37.9018Z" fill="white"/>
<path d="M93.7898 37.1514V35.456H95.8161C96.1455 35.456 96.2962 35.4838 96.4302 35.5394C96.7539 35.6672 96.994 35.934 96.994 36.3065C96.994 36.69 96.7428 36.9457 96.4302 37.0736C96.2906 37.1291 96.1399 37.1514 95.8217 37.1514H93.7898ZM93.7898 41.8873V38.68H96.0394C96.7204 38.68 97.1837 38.5466 97.5633 38.3076C98.222 37.8962 98.6407 37.1792 98.6407 36.3065C98.6407 35.4004 98.222 34.6945 97.5745 34.2942C97.1893 34.0496 96.7204 33.9218 96.0394 33.9218H92.1207V41.8873H93.7898Z" fill="white"/>
<path d="M99.6455 33.9162V41.8873H105.278V40.3532H101.32V38.2798H104.34V36.7623H101.32V35.4504H105.278V33.9162H99.6455Z" fill="white"/>
<path d="M108.203 41.8873V38.6689H109.71L111.602 41.8873H113.523L111.491 38.5021L111.563 38.4743C111.988 38.3298 112.362 38.0741 112.641 37.6683C112.903 37.2903 113.048 36.8234 113.048 36.3065C113.048 35.3948 112.63 34.6889 111.982 34.2942C111.597 34.0496 111.128 33.9218 110.447 33.9218H106.534V41.8873H108.203ZM108.203 37.1458V35.456H110.224C110.553 35.456 110.704 35.4782 110.838 35.5394C111.161 35.6672 111.402 35.934 111.402 36.3065C111.402 36.6845 111.15 36.9401 110.838 37.068C110.698 37.1291 110.547 37.1458 110.229 37.1458H108.203Z" fill="white"/>
</svg>
