<svg width="60" height="60" viewBox="0 0 60 60" fill="none" xmlns="http://www.w3.org/2000/svg">
<path d="M44.6756 15.4557C46.2718 15.827 47.7221 16.6628 48.8437 17.8575C49.4616 18.5041 49.9981 19.2239 50.4412 20.0007C50.4619 20.085 47.565 22.0313 45.8081 23.1169C45.7444 23.16 45.4912 22.8844 45.2044 22.4607C44.8834 21.909 44.4279 21.4476 43.8803 21.1198C43.3327 20.7919 42.711 20.6081 42.0731 20.5857C40.0537 20.4469 38.7525 21.5044 38.7619 23.2725C38.7444 23.7069 38.8435 24.1381 39.0487 24.5213C39.4931 25.44 40.3181 25.9913 42.9094 27.1144C47.6794 29.1675 49.7269 30.5213 50.9906 32.445C51.705 33.6605 52.1449 35.0175 52.2796 36.4209C52.4144 37.8243 52.2406 39.2402 51.7706 40.5694C51.1246 42.0271 50.1003 43.2853 48.8039 44.2134C47.5074 45.1416 45.9862 45.7058 44.3981 45.8475C42.71 46.0412 41.0044 46.0235 39.3206 45.795C36.7416 45.3713 34.3657 44.1334 32.5406 42.2625C31.851 41.486 31.2672 40.6216 30.8044 39.6919C30.999 39.5471 31.2039 39.4168 31.4175 39.3019C31.7138 39.1332 32.835 38.4882 33.8925 37.875L35.8125 36.75L36.2137 37.335C36.8896 38.3015 37.7498 39.1248 38.745 39.7575C39.7501 40.3088 40.8885 40.57 42.0334 40.5121C43.1782 40.4542 44.2845 40.0793 45.2287 39.4294C45.7158 38.9547 46.0203 38.3236 46.0889 37.6469C46.1575 36.9702 45.9857 36.291 45.6037 35.7282C45.0863 34.9875 44.0287 34.365 41.0231 33.0619C38.6663 32.2672 36.5197 30.95 34.7437 29.2088C33.898 28.245 33.2734 27.1077 32.9137 25.8769C32.6478 24.4747 32.6086 23.039 32.7975 21.6244C33.1503 19.9966 33.9951 18.5166 35.2172 17.385C36.4394 16.2534 37.9799 15.5249 39.63 15.2982C41.3103 15.0974 43.0112 15.1505 44.6756 15.4557ZM29.0325 18.2363L29.0531 20.9625H20.3719V45.615H14.25V20.9682H5.56875V18.2907C5.54566 17.3737 5.5707 16.4562 5.64375 15.5419C5.67562 15.4988 10.9537 15.4782 17.3531 15.4894L28.9987 15.5213L29.0325 18.2363Z" fill="#00C4F0"/>
</svg>
