<svg width="879" height="880" viewBox="0 0 879 880" fill="none" xmlns="http://www.w3.org/2000/svg">
<path d="M393.59 489.785C423.403 532.57 462.257 555.817 498.558 564.411C557.096 578.268 610.889 553.671 622.272 505.586C636.895 443.816 585.042 415.283 541.037 396.838C503.985 381.242 482.773 370.802 487.002 352.936C490.871 336.591 513.678 334.363 533.634 339.087C558.152 344.891 582.41 360.268 596.867 379.747L638.76 346.913C614.165 316.002 580.988 295.905 546.587 287.761C484.438 273.048 441.243 300.356 430.67 345.02C420.322 388.733 452.314 416.378 495.679 436.679C533.801 454.535 572.379 467.08 566.35 492.548C561.401 513.454 533.303 516.838 510.116 511.349C480.276 504.285 455.187 483.092 437.474 457.021L393.59 489.785Z" fill="#E2A200"/>
<g filter="url(#filter0_d_42552_10)">
<path fill-rule="evenodd" clip-rule="evenodd" d="M439.5 660.472C561.279 660.472 660 561.751 660 439.972C660 318.194 561.279 219.472 439.5 219.472C317.721 219.472 219 318.194 219 439.972C219 561.751 317.721 660.472 439.5 660.472ZM439.5 727.472C598.282 727.472 727 598.754 727 439.972C727 281.191 598.282 152.472 439.5 152.472C280.718 152.472 152 281.191 152 439.972C152 598.754 280.718 727.472 439.5 727.472Z" fill="#00C4F0"/>
</g>
<path d="M264.452 432.242C275.811 442.759 289.736 450.07 305.131 453.714C347.324 463.702 387.948 443.012 405.755 408.49C411.215 398.142 414.955 386.583 421.344 359.594L458.598 202.225L401.77 188.772L361.052 360.776C358.712 370.659 356.522 377.367 353.832 381.948C347.666 392.732 333.643 400.251 318.628 396.696C312.547 395.256 307.495 392.856 303.463 388.69L264.452 432.242Z" fill="#E2A200"/>
<defs>
<filter id="filter0_d_42552_10" x="0" y="0.472412" width="879" height="879" filterUnits="userSpaceOnUse" color-interpolation-filters="sRGB">
<feFlood flood-opacity="0" result="BackgroundImageFix"/>
<feColorMatrix in="SourceAlpha" type="matrix" values="0 0 0 0 0 0 0 0 0 0 0 0 0 0 0 0 0 0 127 0" result="hardAlpha"/>
<feOffset/>
<feGaussianBlur stdDeviation="76"/>
<feComposite in2="hardAlpha" operator="out"/>
<feColorMatrix type="matrix" values="0 0 0 0 0 0 0 0 0 0.768627 0 0 0 0 0.941176 0 0 0 0.42 0"/>
<feBlend mode="normal" in2="BackgroundImageFix" result="effect1_dropShadow_42552_10"/>
<feBlend mode="normal" in="SourceGraphic" in2="effect1_dropShadow_42552_10" result="shape"/>
</filter>
</defs>
</svg>
